PathFileType	4	(X/Y/Z)	Patient4_TMGait_0pt8_01_left_49.trc.trc
DataRate	CameraRate	NumFrames	NumMarkers	Units	OrigDataRate	OrigDataStartFrame	OrigNumFrames
88.050314465409	88.050314465409	6	33	mm	88.050314465409	36	       141
Frame#	Time	Sacral			L.Shoulder			Chest			R.Shoulder			Neck			R.ASIS			L.ASIS			R.Thigh.Superior			R.Thigh.Lateral			R.Thigh.Inferior			R.Patella			L.Thigh.Superior			L.Thigh.Lateral			L.Thigh.Inferior			L.Patella			L.Shank.Superior			L.Shank.Lateral			L.Shank.Inferior			R.Shank.Superior			R.Shank.Lateral			R.Shank.Inferior			R.Heel			R.Midfoot.Superior			R.Midfoot.Lateral			R.Toe			L.Heel			L.Midfoot.Lateral			L.Midfoot.Superior			L.Toe			L.Elbow			L.Wrist			R.Elbow			R.Wrist			
		X1	Y1	Z1	X2	Y2	Z2	X3	Y3	Z3	X4	Y4	Z4	X5	Y5	Z5	X6	Y6	Z6	X7	Y7	Z7	X8	Y8	Z8	X9	Y9	Z9	X10	Y10	Z10	X11	Y11	Z11	X12	Y12	Z12	X13	Y13	Z13	X14	Y14	Z14	X15	Y15	Z15	X16	Y16	Z16	X17	Y17	Z17	X18	Y18	Z18	X19	Y19	Z19	X20	Y20	Z20	X21	Y21	Z21	X22	Y22	Z22	X23	Y23	Z23	X24	Y24	Z24	X25	Y25	Z25	X26	Y26	Z26	X27	Y27	Z27	X28	Y28	Z28	X29	Y29	Z29	X30	Y30	Z30	X31	Y31	Z31	X32	Y32	Z32	X33	Y33	Z33	

36	54.987500000000	916.742086286944	1000.909680924442	502.793825604607	1068.680324159664	1422.468465625890	306.554576070904	1192.627929614841	1354.601946195159	453.382295714770	1133.696404592047	1432.348287716710	635.093831182629	1071.210413604281	1484.867276877986	462.949381735765	1147.405515408233	925.919064862805	596.408226842259	1114.268757547693	953.440856433490	325.582278863058	1151.010112771362	712.915405958330	575.597989402951	1053.555161054386	617.163130104185	644.068668564123	1120.502345628602	547.303186295658	568.023511895920	1096.571946445480	443.476820611380	586.731601971871	1189.744542468064	765.257660637812	354.921167717344	1119.536431265923	637.152820518714	293.778223050183	1219.544468186088	573.233297731110	351.722537573410	1231.766283116349	503.498838638183	358.138738783887	1213.674356168541	428.456631917644	351.701527575620	1137.041179072033	302.765532488332	305.407081886070	1209.111897147562	199.983070823333	373.146023824049	1019.706179778160	381.288262830902	594.319618973687	901.411828967904	338.036940628128	656.900326905694	888.895076700034	229.518800018522	604.440314207241	687.550980240113	146.455378088997	574.555950327511	861.520630156110	118.644689804884	622.680926089037	752.904029594108	101.753695105126	652.173957573198	940.638488211957	32.724429725315	655.831041282109	1101.368245573919	38.356362741590	424.081727503130	1171.400277183082	36.321942701642	339.410476158293	1254.167801486589	98.916442032629	361.853876805445	1381.836683621825	50.053010320054	328.999627123835	946.052552774482	1085.991982965222	227.092725974958	903.296247453450	830.548392534631	244.587325349614	1291.193817169708	1130.929665425327	741.326114760909	1449.205151108673	1298.102487358244	652.573106032910	
37	54.998857142857	916.604016349920	1002.634392235350	499.563858057009	1069.751019010835	1424.401821574629	304.270629013775	1192.591995628776	1356.560899965799	451.995669543559	1132.295926268424	1434.227941428587	633.245308063644	1070.954666680075	1486.799624745282	460.514740151571	1146.733513779973	928.002204761188	594.363314029118	1115.095053985960	955.292006930074	323.488951842976	1156.038024471558	715.931147194105	573.567759085427	1061.846198104194	617.718569190234	642.286492660325	1131.355734138097	549.230205846797	566.529255163674	1108.865936907831	443.532396822165	586.407385647549	1188.924722423601	765.036985628959	351.369838079853	1115.779009441842	637.566957464316	292.273194865512	1215.308051450369	572.453095828192	349.519044725231	1226.715479724293	502.988983222457	356.737752350145	1208.005309538363	428.118932998233	350.526133803575	1130.088146812167	303.071914050436	304.628319800307	1201.076712849864	199.775088295791	372.643815296785	1029.590348184220	382.365549461024	593.118671596530	909.093100150787	344.020081708802	655.056243244781	893.066355850174	235.860355128192	603.252955870143	689.143955729592	162.774960745859	572.443213476778	861.295101005826	124.774158551746	621.752824718376	751.417661218740	114.344158551831	650.519122665124	934.243620300812	32.621557248604	655.020249316702	1092.284865086672	38.322262155021	423.904753281291	1162.296168820951	36.346538640014	339.238310102885	1244.971702678583	98.975568854171	361.666882016571	1372.648752906405	50.416037351626	328.746769233543	953.165705516748	1085.873138968086	221.552217034796	917.803016159029	829.140078329778	236.815073963584	1278.551081460210	1125.687727042405	741.286953745108	1445.364780275883	1284.839260587857	653.365130506345	
38	55.010214285714	916.254390110071	1004.237615413294	496.374533155055	1070.905102749111	1426.269378156708	302.026300124844	1192.447167510559	1358.424332465162	450.783228534848	1130.553230342923	1435.972986420492	631.509155306133	1070.595765545592	1488.630211741451	458.150879424256	1145.877072179971	930.012768496056	592.603655683957	1115.802477493876	956.978014395886	321.637065859906	1161.312748217704	719.208856758040	571.914298203583	1070.462636441908	618.523817303644	640.689368645586	1142.550286760270	551.560484044817	565.230607041757	1121.641369970642	444.145147699589	585.934283199985	1187.643425219549	764.422068711645	347.947177232447	1111.577467108239	637.814239569034	290.922527310773	1210.562268676989	571.505609112306	347.601139220721	1221.097689566625	502.341526543258	355.535129371845	1201.849585115662	427.710275633560	349.479101243188	1122.763729454706	303.241259169602	304.046364415420	1192.828069567902	199.513922773910	372.226852931121	1040.169818634929	383.755598427799	591.773504165363	917.722344058905	350.207264530543	653.119674785986	898.185459332799	242.616137977732	601.855293653674	692.196144189248	179.387731868018	570.151942264306	862.085502141047	131.647814653614	620.441650915617	751.331327690843	127.445759364457	648.606568204704	929.005520758941	33.215785515356	653.817442663423	1083.126402941190	38.265348180188	423.791088335908	1153.111708462979	36.309654911610	339.123274859993	1235.736083066225	98.943134557290	361.540806844341	1363.425704718748	50.574943532075	328.537979226715	960.368289068536	1085.913786616099	215.867400617319	933.283657322661	827.979773763324	228.897991408334	1265.012987503418	1120.659217805755	741.105201857381	1441.424028593358	1270.168016190754	654.297694938349	
39	55.021571428571	915.682410489095	1005.661457720248	493.252705967814	1072.134870564525	1428.003978595481	299.833639113185	1192.188083307598	1360.136740859743	449.755062164975	1128.482069900140	1437.527410850131	629.907785330774	1070.151646141367	1490.314795846931	455.886532190778	1144.852565383075	931.897829617941	591.126493134062	1116.375531800725	958.481674251105	320.017809919833	1166.705435245729	722.723823421083	570.585629955083	1079.261012665552	619.621279636469	639.266276865081	1153.875998624330	554.314348976584	564.098453778744	1134.710598459541	445.340430991419	585.311707802552	1185.942675877366	763.518692351221	344.820985275422	1107.171531094909	637.978433592162	289.678641565092	1205.466291792387	570.477510879401	346.021799442447	1215.066214583110	501.599062922435	354.540134638046	1195.360462423896	427.254766669236	348.580011175330	1115.248062330605	303.309304082168	303.584687823436	1184.461880577624	199.212444100574	371.895094110078	1051.278022377530	385.483197913571	590.326582912061	927.142176536909	356.519826964920	651.137870258924	904.207295330159	249.653648947834	600.297182014763	696.651823254321	195.835834550145	567.774692861769	863.953221641244	139.064788308078	618.754165453176	752.706605157806	140.641417787911	646.470774353765	925.183661817773	34.667474643905	652.168683440350	1073.920813032024	38.203428297665	423.718242892944	1143.880947088567	36.231799003395	339.048040691094	1226.503199245866	98.828825692909	361.469345727562	1354.200121381520	50.532841135178	328.378603259290	967.678998794436	1086.038235836078	210.074851132896	949.650021461917	827.079967909194	220.888811449189	1250.758177619180	1115.906526770372	740.758133005727	1437.279692008639	1254.079698556019	655.405112298511	
40	55.032928571429	914.888478463027	1006.877714846698	490.218411159954	1073.414940221357	1429.563885986942	297.715071859637	1191.809219785872	1361.665039752945	448.915457459984	1126.116158170772	1438.859265796815	628.459347335988	1069.638364553230	1491.829805519498	453.752683091650	1143.676782771811	933.632069675400	589.902215891640	1116.805647748225	959.805495261720	318.601085524652	1172.075667179379	726.455157596152	569.493395919324	1088.106596851265	621.047414158930	638.003001624327	1165.140675471727	557.508997027437	563.100341680556	1147.907971969660	447.134494579165	584.575382883545	1183.891033797124	762.445760080547	342.122941272576	1102.761125113173	638.124363130070	288.506792037955	1200.173085117439	569.438310729502	344.797569070874	1208.776409190162	500.800130014250	353.756719140025	1188.683526594953	426.774353807584	347.838729192521	1107.690083911392	303.314179949579	303.185642212413	1176.059998130769	198.885015256159	371.644087249741	1062.767770126339	387.571218356887	588.843328233368	937.199389337595	362.873167003132	649.167147950948	911.098275733161	256.819076173520	598.643407529617	702.433782061490	211.662475297411	565.395241644261	866.970133365293	146.772573786984	616.728342894524	755.575350494542	153.503180763591	644.159552961092	923.025341568277	37.047498542472	650.066601985383	1064.694451621689	38.149799691246	423.666878089164	1134.633643778650	36.134149983388	338.997093505136	1217.301345854474	98.652870135192	361.442250755987	1344.994222813301	50.320512066946	328.264937059179	975.136969666215	1086.188807859066	204.215618935118	966.827881490687	826.468414541903	212.842914967493	1235.974641410860	1111.480962631631	740.235959265315	1432.808513716996	1236.572602130309	656.727922764768	
41	55.044285714286	913.886063654675	1007.885087339044	487.283550677098	1074.705020306968	1430.932325354043	295.700375617532	1191.305711808960	1362.998120431453	448.262148581024	1123.502273632701	1439.958604191414	627.175736844849	1069.067464735902	1493.169067831781	451.777791067706	1142.366543535143	935.213998306732	588.881236626186	1117.094661575384	960.965451980631	317.344983097155	1177.289897735661	730.384083505484	568.531799668250	1096.880335280760	622.826817225405	636.883667307739	1176.183164068231	561.154044424186	562.206985917784	1161.093922598812	449.533272868317	583.784455022048	1181.578575983178	761.313298797403	339.931486525417	1098.486797797075	638.291853917699	287.389748416189	1194.813576612380	568.433453886602	343.909922306351	1202.368957723872	499.974728519978	353.178824132254	1181.943218172136	426.284645699086	347.252061882196	1100.194280941443	303.289762581178	302.815785428780	1167.685769921791	198.543624909822	371.464928485250	1074.516587502603	390.035579074503	587.399549484169	947.755773723767	369.173160027153	647.265075062226	918.834127315093	263.943018214059	596.964113868271	709.453527391810	226.440521875581	563.080214939999	871.211113123278	154.489944147428	614.433670114394	759.941567936108	165.627671633741	641.733277314743	922.746030831406	40.309448024429	647.564549906015	1055.468860756987	38.112906384951	423.622904129686	1125.392496502759	36.035395668501	338.958779512064	1208.145790610975	98.438953767207	361.448909318264	1335.820399063876	49.981375491578	328.188291298596	982.790995675438	1086.333637348630	198.333835804237	984.755446062290	826.192693146390	204.819591391343	1220.852101495801	1107.427829996607	739.541444088207	1427.867047976905	1217.661654535039	658.307648842147	
